<svg t="1560923138038" class="icon" viewBox="0 0 1024 1024" version="1.1" xmlns="http://www.w3.org/2000/svg" p-id="2779" height="32" width="32"><path d="M992.12066 500.081091c30.237461-30.237461 39.541296-76.756633 25.585544-116.297928-13.955751-41.867254-46.519171-72.104715-88.386426-79.082592l-186.076684-32.563419c-20.933627-4.651917-37.215337-16.28171-46.519172-34.889379l-88.386425-172.120933C592.055787 23.259586 554.84045 0 512.973196 0c-41.867254 0-79.082591 23.259586-100.016218 62.800881L326.896511 234.921815c-9.303834 18.607668-27.911503 32.56342-46.519171 34.889378L94.300655 302.374613c-41.867254 6.977876-74.430674 37.215337-88.386425 79.082591-13.955751 41.867254-2.325959 86.060467 25.585544 116.297928l130.253679 139.557514c13.955751 13.955751 20.933627 37.215337 18.607669 58.148964l-27.911503 193.05456C145.471743 930.383424 164.079412 974.576637 196.642832 1000.162181c18.607668 13.955751 41.867254 23.259586 65.12684 23.259586 16.28171 0 34.889378-4.651917 48.845129-11.629793l169.794975-86.060467c18.607668-9.303834 39.541296-9.303834 58.148964 0l169.794975 86.060467c37.215337 18.607668 81.40855 16.28171 116.297928-9.303834 32.56342-25.585544 51.171088-67.452798 44.193213-111.646011L843.259312 697.787568c-2.325959-20.933627 4.651917-41.867254 18.607668-58.148964l130.25368-139.557513z m-162.8171 104.668135c-23.259586 25.585544-34.889378 62.800881-30.237461 97.690259l27.911503 193.054561c4.651917 25.585544-6.977876 48.84513-25.585544 65.12684-20.933627 13.955751-44.193213 16.28171-67.452799 6.977875l-169.794975-86.060467c-30.237461-16.28171-67.452798-16.28171-100.016218 0l-169.794975 86.060467c-23.259586 11.629793-46.519171 9.303834-67.452798-6.977875-20.933627-13.955751-30.237461-39.541296-25.585544-65.12684l27.911503-193.054561c4.651917-34.889378-6.977876-72.104715-30.237462-97.690259l-130.253679-139.557514c-16.28171-18.607668-23.259586-44.193213-16.28171-67.452798 6.977876-25.585544 25.585544-41.867254 51.171088-46.519171l186.076685-32.56342c34.889378-6.977876 65.12684-27.911503 79.082591-60.474923l88.386426-172.120933c11.629793-23.259586 32.56342-37.215337 58.148964-37.215337s46.519171 13.955751 58.148964 37.215337l88.386425 172.120933c16.28171 32.56342 46.519171 53.497047 79.082591 60.474923l186.076685 32.56342c23.259586 4.651917 44.193213 20.933627 51.171088 46.519171 6.977876 25.585544 2.325959 48.84513-16.28171 67.452798l-132.579638 139.557514z" fill="#d4237a" p-id="2780"></path></svg>