<svg t="1560923261877" class="icon" viewBox="0 0 1879 1024" version="1.1" xmlns="http://www.w3.org/2000/svg" p-id="3853" height="32" width="32"><path d="M1240.046243 346.709827V878.982659c0 17.905202-14.649711 32.70289-32.70289 32.70289H603.449711c-17.905202 0-32.70289-14.649711-32.70289-32.70289V212.198844c0-17.905202 14.649711-32.70289 32.70289-32.70289h464.203468c21.012717 0 37.882081-17.017341 37.882081-37.882081 0-19.236994-15.537572-34.774566-34.774566-34.774567H610.996532c-58.746821 0-106.691329 47.944509-106.69133 106.69133V877.50289c0 58.746821 47.944509 106.691329 106.69133 106.69133h588.947977c58.746821 0 106.691329-47.944509 106.691329-106.69133V347.301734c0-18.49711-15.093642-33.590751-33.590751-33.590751-18.201156 0-32.998844 14.797688-32.998844 32.998844z" fill="#d4237a" p-id="3854"></path><path d="M878.094798 444.078613H665.304046c-14.945665 0-27.227746-12.282081-27.227745-27.227746V403.976879c0-14.945665 12.282081-27.227746 27.227745-27.227746h212.790752c14.945665 0 27.227746 12.282081 27.227745 27.227746v12.873988c0.147977 14.945665-12.134104 27.227746-27.227745 27.227746zM1077.715607 646.510983H665.304046c-14.945665 0-27.227746-12.282081-27.227745-27.227746v-12.873988c0-14.945665 12.282081-27.227746 27.227745-27.227746h412.411561c14.945665 0 27.227746 12.282081 27.227746 27.227746v12.873988c0 14.945665-12.282081 27.227746-27.227746 27.227746zM1370.413873 94.113295L1029.327168 437.123699c-10.654335 10.654335-27.96763 10.654335-38.621966 0.147977l-9.174566-9.174566c-10.654335-10.654335-10.654335-27.96763-0.147977-38.621965L1322.617341 46.46474c10.654335-10.654335 27.96763-10.654335 38.621965-0.147977l9.174567 9.174566c10.654335 10.654335 10.654335 27.96763 0 38.621966z" fill="#d4237a" p-id="3855"></path></svg>